<svg data-logo="logo" xmlns="http://www.w3.org/2000/svg" viewBox="0 0 222 36">
            <g style="opacity: 1; transition: 0.2s;" id="logogram" transform="translate(0, 1) rotate(0)"><path d="M16.0573 0H37.1389L21.6397 22.9729H0.558105L16.0573 0Z" fill="#007AFF"></path><path d="M16.9805 25.102L10.9773 34H33.0589L48.5581 11.0271H32.2605L22.7645 25.102H16.9805Z" fill="#312ECB"></path></g>
            <g style="opacity: 0.3; transition: 0.2s;" id="logotype" transform="translate(55, 7)"><path fill="#312ecb" d="M12.55 22L7.98 22L7.98 0.17L12.96 0.17L19.86 11.22Q20.38 12.07 20.93 13.06Q21.47 14.06 22.03 15.28Q22.60 16.49 23.15 18.02L23.15 18.02L22.70 18.02Q22.60 16.80 22.52 15.42Q22.44 14.05 22.38 12.79Q22.32 11.53 22.32 10.65L22.32 10.65L22.32 0.17L26.89 0.17L26.89 22L21.89 22L15.62 11.98Q14.94 10.85 14.35 9.79Q13.76 8.73 13.13 7.44Q12.49 6.15 11.61 4.38L11.61 4.38L12.18 4.38Q12.27 5.96 12.36 7.41Q12.45 8.86 12.50 10.04Q12.55 11.22 12.55 11.97L12.55 11.97L12.55 22ZM44.58 22L29.94 22L29.94 0.17L44.55 0.17L44.55 3.88L34.41 3.88L34.41 9.15L43.77 9.15L43.77 12.80L34.41 12.80L34.41 18.29L44.58 18.29L44.58 22ZM56.98 22L51.87 22L46.01 0.17L50.88 0.17L53.42 10.91Q53.73 12.26 53.98 13.79Q54.24 15.32 54.49 16.87Q54.74 18.41 54.97 19.83L54.97 19.83L54.18 19.83Q54.44 18.41 54.71 16.87Q54.97 15.32 55.25 13.79Q55.53 12.26 55.87 10.91L55.87 10.91L58.53 0.17L63.17 0.17L65.83 10.91Q66.16 12.26 66.44 13.79Q66.72 15.32 66.99 16.87Q67.26 18.41 67.53 19.83L67.53 19.83L66.70 19.83Q66.95 18.41 67.20 16.87Q67.44 15.32 67.71 13.79Q67.98 12.26 68.27 10.91L68.27 10.91L70.81 0.17L75.70 0.17L69.83 22L64.73 22L61.83 10.84Q61.36 8.98 61.03 6.80Q60.70 4.63 60.29 2.34L60.29 2.34L61.40 2.34Q60.95 4.58 60.66 6.72Q60.38 8.86 59.86 10.84L59.86 10.84L56.98 22ZM85.49 22.32L85.49 22.32Q82.87 22.32 80.93 21.52Q78.99 20.71 77.90 19.13Q76.82 17.55 76.76 15.23L76.76 15.23L81.11 15.23Q81.20 16.33 81.77 17.07Q82.34 17.81 83.30 18.18Q84.25 18.54 85.45 18.54L85.45 18.54Q86.65 18.54 87.54 18.20Q88.42 17.85 88.92 17.22Q89.42 16.59 89.42 15.76L89.42 15.76Q89.42 15.01 88.97 14.51Q88.52 14.00 87.69 13.64Q86.85 13.27 85.65 12.99L85.65 12.99L83.25 12.39Q80.48 11.72 78.92 10.27Q77.35 8.83 77.35 6.46L77.35 6.46Q77.35 4.48 78.41 3.00Q79.47 1.52 81.32 0.70Q83.18-0.12 85.55-0.12L85.55-0.12Q87.97-0.12 89.77 0.71Q91.57 1.54 92.58 3.01Q93.59 4.48 93.62 6.40L93.62 6.40L89.30 6.40Q89.18 5.08 88.18 4.36Q87.18 3.65 85.51 3.65L85.51 3.65Q84.38 3.65 83.57 3.97Q82.77 4.29 82.34 4.86Q81.92 5.43 81.92 6.17L81.92 6.17Q81.92 6.97 82.41 7.51Q82.90 8.04 83.70 8.37Q84.50 8.70 85.42 8.92L85.42 8.92L87.40 9.40Q88.77 9.71 89.96 10.24Q91.15 10.76 92.04 11.53Q92.93 12.30 93.42 13.36Q93.92 14.41 93.92 15.79L93.92 15.79Q93.92 17.77 92.92 19.24Q91.92 20.71 90.03 21.52Q88.14 22.32 85.49 22.32ZM100.71 22L96.24 22L96.24 0.17L110.59 0.17L110.59 3.88L100.71 3.88L100.71 9.97L109.63 9.97L109.63 13.62L100.71 13.62L100.71 22ZM126.83 22L112.95 22L112.95 0.17L117.41 0.17L117.41 18.29L126.83 18.29L126.83 22ZM138.02 22.31L138.02 22.31Q135.31 22.31 133.28 21.30Q131.25 20.30 130.13 18.51Q129.01 16.73 129.01 14.34L129.01 14.34L129.01 0.17L133.48 0.17L133.48 13.97Q133.48 15.25 134.04 16.24Q134.60 17.22 135.62 17.79Q136.64 18.35 138.02 18.35L138.02 18.35Q139.38 18.35 140.40 17.79Q141.42 17.22 141.98 16.24Q142.54 15.25 142.54 13.97L142.54 13.97L142.54 0.17L147.03 0.17L147.03 14.34Q147.03 16.73 145.90 18.51Q144.77 20.30 142.74 21.30Q140.71 22.31 138.02 22.31ZM166.37 22L149.77 22L149.77 19.32L158.62 6.82Q159.44 5.68 160.42 4.53Q161.40 3.38 162.40 2.25L162.40 2.25L162.74 3.70Q161.27 3.84 159.80 3.86Q158.33 3.88 156.86 3.88L156.86 3.88L149.73 3.88L149.73 0.17L166.33 0.17L166.33 2.87L157.64 15.14Q156.78 16.35 155.76 17.54Q154.74 18.73 153.70 19.92L153.70 19.92L153.36 18.47Q154.90 18.34 156.43 18.32Q157.96 18.29 159.49 18.29L159.49 18.29L166.37 18.29L166.37 22Z"></path></g>
            
          </svg>